{
  "accessors": [
    {
      "bufferView": 1,
      "componentType": 5126,
      "count": 18752,
      "max": [
        0.5089175701141357,
        0.5093079209327698,
        0.5092101693153381
      ],
      "min": [
        -0.5089175701141357,
        -0.5093079209327698,
        -0.5092101693153381
      ],
      "type": "VEC3"
    },
    {
      "bufferView": 1,
      "byteOffset": 225024,
      "componentType": 5126,
      "count": 18752,
      "max": [
        0.9999034404754639,
        0.9999947547912598,
        0.999997615814209
      ],
      "min": [
        -0.9999035596847534,
        -0.9999948740005493,
        -0.999997615814209
      ],
      "type": "VEC3"
    },
    {
      "bufferView": 2,
      "componentType": 5126,
      "count": 18752,
      "max": [
        1.0,
        1.0,
        1.0,
        1.0
      ],
      "min": [
        0.0,
        0.0,
        0.0,
        1.0
      ],
      "type": "VEC4"
    },
    {
      "bufferView": 0,
      "componentType": 5125,
      "count": 103680,
      "type": "SCALAR"
    }
  ],
  "asset": {
    "extras": {
      "author": "primavera (https://sketchfab.com/primavera)",
      "license": "CC-BY-4.0 (http://creativecommons.org/licenses/by/4.0/)",
      "source": "https://sketchfab.com/3d-models/soccer-ball-2b74e98be6834219b9e3cb533d558d2d",
      "title": "soccer ball"
    },
    "generator": "Sketchfab-12.71.0",
    "version": "2.0"
  },
  "bufferViews": [
    {
      "buffer": 0,
      "byteLength": 414720,
      "name": "floatBufferViews",
      "target": 34963
    },
    {
      "buffer": 0,
      "byteLength": 450048,
      "byteOffset": 414720,
      "byteStride": 12,
      "name": "floatBufferViews",
      "target": 34962
    },
    {
      "buffer": 0,
      "byteLength": 300032,
      "byteOffset": 864768,
      "byteStride": 16,
      "name": "floatBufferViews",
      "target": 34962
    }
  ],
  "buffers": [
    {
      "byteLength": 1164800,
      "uri": "scene.bin"
    }
  ],
  "materials": [
    {
      "doubleSided": true,
      "name": "principledshader",
      "pbrMetallicRoughness": {
        "metallicFactor": 0.0,
        "roughnessFactor": 0.9577051494623774
      }
    }
  ],
  "meshes": [
    {
      "name": "geo1_principledshader_0",
      "primitives": [
        {
          "attributes": {
            "COLOR_0": 2,
            "NORMAL": 1,
            "POSITION": 0
          },
          "indices": 3,
          "material": 0,
          "mode": 4
        }
      ]
    }
  ],
  "nodes": [
    {
      "children": [
        1
      ],
      "matrix": [
        0.39389726519584656,
        2.040932900900831e-16,
        -0.9191544651985168,
        0.0,
        -0.9191544651985168,
        8.746276263146203e-17,
        -0.39389726519584656,
        0.0,
        0.0,
        1.0,
        2.220446049250313e-16,
        0.0,
        2.8325903844717004e-09,
        5.020182117891355e-25,
        -2.2608890315467534e-09,
        1.0
      ],
      "name": "Sketchfab_model"
    },
    {
      "children": [
        2
      ],
      "matrix": [
        0.009999999776482582,
        0.0,
        0.0,
        0.0,
        0.0,
        0.0,
        0.009999999776482582,
        0.0,
        0.0,
        -0.009999999776482582,
        0.0,
        0.0,
        0.0,
        0.0,
        0.0,
        1.0
      ],
      "name": "mesh.fbx"
    },
    {
      "children": [
        3
      ],
      "name": "RootNode"
    },
    {
      "children": [
        4
      ],
      "name": "geo1"
    },
    {
      "mesh": 0,
      "name": "geo1_principledshader_0"
    }
  ],
  "scene": 0,
  "scenes": [
    {
      "name": "Sketchfab_Scene",
      "nodes": [
        0
      ]
    }
  ]
}
